<?xml version="1.0" standalone="no"?><!DOCTYPE svg PUBLIC "-//W3C//DTD SVG 1.1//EN" "http://www.w3.org/Graphics/SVG/1.1/DTD/svg11.dtd"><svg t="1702039713851" class="icon" viewBox="0 0 1024 1024" version="1.1" xmlns="http://www.w3.org/2000/svg" p-id="4222" xmlns:xlink="http://www.w3.org/1999/xlink" width="200" height="200"><path d="M763.172571 578.304Q786.285714 519.917714 786.285714 457.142857q0-62.774857-23.113143-121.161143-25.088-63.378286-73.289142-111.579428t-111.579429-73.289143Q519.917714 128 457.142857 128q-62.774857 0-121.161143 23.113143-63.378286 25.088-111.579428 73.289143t-73.289143 111.579428Q128 394.368 128 457.142857q0 62.774857 23.113143 121.161143 25.088 63.378286 73.289143 111.579429t111.579428 73.289142Q394.368 786.285714 457.142857 786.285714q62.774857 0 121.161143-23.113143 46.226286-18.285714 84.388571-48.914285 0.896 1.042286 1.865143 2.011428l155.154286 155.154286q2.56 2.56 5.540571 4.571429 2.998857 1.974857 6.326858 3.364571 3.328 1.371429 6.857142 2.084571 3.529143 0.694857 7.131429 0.694858t7.131429-0.694858q3.547429-0.713143 6.875428-2.084571 3.328-1.389714 6.326857-3.382857 2.980571-2.011429 5.540572-4.553143 2.541714-2.541714 4.534857-5.540571 2.011429-2.980571 3.382857-6.326858 1.389714-3.309714 2.084571-6.857142 0.694857-3.529143 0.694858-7.131429t-0.694858-7.131429q-0.694857-3.529143-2.084571-6.857142-1.371429-3.328-3.382857-6.326858-2.011429-2.998857-4.534857-5.540571l-155.172572-155.154286q-0.969143-0.969143-2.011428-1.865143 30.610286-38.162286 48.914285-84.388571z m-68.004571-215.405714Q713.142857 408.32 713.142857 457.142857t-17.974857 94.226286Q675.657143 600.685714 638.171429 638.171429q-37.485714 37.485714-86.802286 56.996571Q505.965714 713.142857 457.142857 713.142857q-48.822857 0-94.226286-17.974857Q313.6 675.657143 276.114286 638.171429q-37.485714-37.485714-56.996572-86.802286Q201.142857 505.965714 201.142857 457.142857q0-48.822857 17.974857-94.226286Q238.628571 313.6 276.114286 276.114286q37.485714-37.485714 86.802285-56.996572Q408.32 201.142857 457.142857 201.142857q48.822857 0 94.226286 17.974857Q600.685714 238.628571 638.171429 276.114286q37.485714 37.485714 56.996571 86.802285z" p-id="4223" fill="#2c2c2c"></path></svg>