<?xml version="1.0" standalone="no"?><!DOCTYPE svg PUBLIC "-//W3C//DTD SVG 1.1//EN" "http://www.w3.org/Graphics/SVG/1.1/DTD/svg11.dtd"><svg t="1702003463288" class="icon" viewBox="0 0 1024 1024" version="1.1" xmlns="http://www.w3.org/2000/svg" p-id="1453" xmlns:xlink="http://www.w3.org/1999/xlink" width="200" height="200"><path d="M206.994286 159.122286q23.826286-9.435429 49.005714-11.940572V128q0-1.792 0.182857-3.584t0.512-3.547429q0.365714-1.773714 0.877714-3.474285 0.530286-1.737143 1.206858-3.382857 0.694857-1.664 1.536-3.254858 0.841143-1.572571 1.846857-3.072 1.005714-1.499429 2.139428-2.889142 1.133714-1.389714 2.413715-2.651429 1.28-1.28 2.651428-2.413714 1.389714-1.133714 2.889143-2.139429 1.499429-1.005714 3.072-1.828571 1.590857-0.859429 3.254857-1.554286 1.645714-0.676571 3.364572-1.206857 1.737143-0.512 3.474285-0.877714 1.773714-0.347429 3.565715-0.512Q290.779429 91.428571 292.571429 91.428571t3.584 0.182858q1.792 0.182857 3.547428 0.512 1.755429 0.365714 3.474286 0.877714 1.737143 0.530286 3.382857 1.206857 1.664 0.694857 3.254857 1.536 1.572571 0.841143 3.072 1.846857 1.499429 1.005714 2.889143 2.139429 1.389714 1.133714 2.651429 2.413714 1.28 1.28 2.413714 2.651429 1.133714 1.389714 2.139428 2.889142 1.005714 1.499429 1.828572 3.072 0.859429 1.590857 1.554286 3.254858 0.676571 1.645714 1.206857 3.364571 0.512 1.718857 0.877714 3.474286 0.347429 1.773714 0.512 3.565714 0.182857 1.792 0.182857 3.584v18.285714h146.285714V128q0-1.792 0.182858-3.584t0.512-3.547429q0.365714-1.773714 0.877714-3.474285 0.530286-1.737143 1.206857-3.382857 0.694857-1.664 1.536-3.254858 0.841143-1.572571 1.846857-3.072 1.005714-1.499429 2.139429-2.889142 1.133714-1.389714 2.413714-2.651429 1.28-1.28 2.651429-2.413714 1.389714-1.133714 2.889142-2.139429 1.499429-1.005714 3.072-1.828571 1.590857-0.859429 3.254858-1.554286 1.645714-0.676571 3.364571-1.206857 1.737143-0.512 3.474286-0.877714 1.773714-0.347429 3.565714-0.512Q510.208 91.428571 512 91.428571t3.584 0.182858q1.792 0.182857 3.547429 0.512 1.755429 0.365714 3.474285 0.877714 1.737143 0.530286 3.382857 1.206857 1.664 0.694857 3.254858 1.536 1.572571 0.841143 3.072 1.846857 1.499429 1.005714 2.889142 2.139429 1.389714 1.133714 2.651429 2.413714 1.28 1.28 2.413714 2.651429 1.133714 1.389714 2.139429 2.889142 1.005714 1.499429 1.828571 3.072 0.859429 1.590857 1.554286 3.254858 0.676571 1.645714 1.206857 3.364571 0.512 1.718857 0.877714 3.474286 0.347429 1.773714 0.512 3.565714 0.182857 1.792 0.182858 3.584v18.285714h146.285714V128q0-1.792 0.182857-3.584t0.512-3.547429q0.365714-1.773714 0.877714-3.474285 0.530286-1.737143 1.206857-3.382857 0.694857-1.664 1.536-3.254858 0.859429-1.572571 1.846858-3.072 1.005714-1.499429 2.139428-2.889142 1.133714-1.389714 2.413714-2.651429 1.28-1.28 2.651429-2.413714 1.389714-1.133714 2.889143-2.139429 1.499429-1.005714 3.072-1.828571 1.590857-0.859429 3.254857-1.554286 1.645714-0.676571 3.364571-1.206857 1.737143-0.512 3.474286-0.877714 1.773714-0.347429 3.565714-0.512Q729.636571 91.428571 731.428571 91.428571t3.584 0.182858q1.792 0.182857 3.547429 0.512 1.755429 0.365714 3.474286 0.877714 1.737143 0.530286 3.382857 1.206857 1.664 0.694857 3.254857 1.536 1.572571 0.841143 3.072 1.846857 1.499429 1.005714 2.889143 2.139429 1.389714 1.133714 2.651428 2.413714 1.28 1.28 2.413715 2.651429 1.133714 1.389714 2.139428 2.889142 1.005714 1.499429 1.828572 3.072 0.859429 1.590857 1.554285 3.254858 0.676571 1.645714 1.206858 3.364571 0.512 1.718857 0.877714 3.474286 0.347429 1.773714 0.512 3.565714 0.182857 1.792 0.182857 3.584v19.2q25.179429 2.486857 49.024 11.922286 35.218286 13.933714 61.988571 40.722285 26.788571 26.770286 40.722286 61.988572Q932.571429 294.272 932.571429 329.142857v438.857143q0 34.870857-12.836572 67.309714-13.952 35.218286-40.722286 61.988572-26.770286 26.788571-61.988571 40.722285Q784.603429 950.857143 749.714286 950.857143H274.285714q-34.870857 0-67.291428-12.836572-35.236571-13.952-62.006857-40.722285-26.788571-26.770286-40.722286-61.988572Q91.428571 802.870857 91.428571 768V329.142857q0-34.870857 12.836572-67.291428 13.933714-35.236571 40.722286-62.006858 26.770286-26.788571 61.988571-40.722285zM256 274.285714v-53.467428q-33.828571 5.284571-59.300571 30.738285Q164.571429 283.702857 164.571429 329.142857v438.857143q0 45.44 32.128 77.586286Q228.845714 877.714286 274.285714 877.714286h475.428572q45.44 0 77.586285-32.128Q859.428571 813.44 859.428571 768V329.142857q0-45.44-32.128-77.586286Q801.828571 226.102857 768 220.818286V274.285714q0 1.792-0.182857 3.584t-0.512 3.547429q-0.365714 1.755429-0.877714 3.474286-0.530286 1.737143-1.206858 3.382857-0.694857 1.664-1.536 3.254857-0.859429 1.572571-1.846857 3.072-1.005714 1.499429-2.139428 2.889143-1.133714 1.389714-2.413715 2.651428-1.28 1.28-2.651428 2.413715-1.389714 1.133714-2.889143 2.139428-1.499429 1.005714-3.072 1.828572-1.590857 0.859429-3.254857 1.554285-1.645714 0.676571-3.364572 1.206857-1.737143 0.512-3.474285 0.877715-1.773714 0.347429-3.565715 0.512-1.792 0.182857-3.584 0.182857t-3.584-0.182857q-1.792-0.182857-3.547428-0.512-1.755429-0.365714-3.474286-0.877715-1.737143-0.530286-3.382857-1.206857-1.664-0.694857-3.254857-1.536-1.572571-0.841143-3.072-1.846857-1.499429-1.005714-2.889143-2.139428-1.389714-1.133714-2.651429-2.413715-1.28-1.28-2.413714-2.651428-1.133714-1.389714-2.139428-2.889143-1.005714-1.499429-1.828572-3.072-0.859429-1.590857-1.554286-3.254857-0.676571-1.645714-1.206857-3.364572-0.512-1.737143-0.877714-3.474285-0.347429-1.773714-0.512-3.565715Q694.857143 276.077714 694.857143 274.285714v-54.857143h-146.285714v54.857143q0 1.792-0.182858 3.584t-0.512 3.547429q-0.365714 1.755429-0.877714 3.474286-0.530286 1.737143-1.206857 3.382857-0.694857 1.664-1.536 3.254857-0.841143 1.572571-1.846857 3.072-1.005714 1.499429-2.139429 2.889143-1.133714 1.389714-2.413714 2.651428-1.28 1.28-2.651429 2.413715-1.389714 1.133714-2.889142 2.139428-1.499429 1.005714-3.072 1.828572-1.590857 0.859429-3.254858 1.554285-1.645714 0.676571-3.364571 1.206857-1.737143 0.512-3.474286 0.877715-1.773714 0.347429-3.565714 0.512-1.792 0.182857-3.584 0.182857t-3.584-0.182857q-1.792-0.182857-3.547429-0.512-1.755429-0.365714-3.474285-0.877715-1.737143-0.530286-3.382857-1.206857-1.664-0.694857-3.254858-1.536-1.572571-0.841143-3.072-1.846857-1.499429-1.005714-2.889142-2.139428-1.389714-1.133714-2.651429-2.413715-1.28-1.28-2.413714-2.651428-1.133714-1.389714-2.139429-2.889143-1.005714-1.499429-1.828571-3.072-0.859429-1.590857-1.554286-3.254857-0.676571-1.645714-1.206857-3.364572-0.512-1.737143-0.877714-3.474285-0.347429-1.773714-0.512-3.565715Q475.428571 276.077714 475.428571 274.285714v-54.857143h-146.285714v54.857143q0 1.792-0.182857 3.584t-0.512 3.547429q-0.365714 1.755429-0.877714 3.474286-0.530286 1.737143-1.206857 3.382857-0.694857 1.664-1.536 3.254857-0.841143 1.572571-1.846858 3.072-1.005714 1.499429-2.139428 2.889143-1.133714 1.389714-2.413714 2.651428-1.28 1.28-2.651429 2.413715-1.389714 1.133714-2.889143 2.139428-1.499429 1.005714-3.072 1.828572-1.590857 0.859429-3.254857 1.554285-1.645714 0.676571-3.364571 1.206857-1.737143 0.512-3.474286 0.877715-1.773714 0.347429-3.565714 0.512-1.792 0.182857-3.584 0.182857t-3.584-0.182857q-1.792-0.182857-3.547429-0.512-1.755429-0.365714-3.474286-0.877715-1.737143-0.530286-3.382857-1.206857-1.664-0.694857-3.254857-1.536-1.572571-0.841143-3.072-1.846857-1.499429-1.005714-2.889143-2.139428-1.389714-1.133714-2.651428-2.413715-1.28-1.28-2.413715-2.651428-1.133714-1.389714-2.139428-2.889143-1.005714-1.499429-1.828572-3.072-0.859429-1.590857-1.554285-3.254857-0.676571-1.645714-1.206858-3.364572-0.512-1.737143-0.877714-3.474285-0.347429-1.773714-0.512-3.565715Q256 276.077714 256 274.285714z m438.857143 219.428572q0 6.107429-1.974857 11.885714-1.993143 5.76-5.723429 10.569143l-165.430857 212.662857q-11.062857 14.262857-28.891429 17.097143-17.810286 2.834286-32.768-7.259429l-114.816-77.494857q-3.712-2.523429-6.729142-5.851428-2.998857-3.346286-5.12-7.314286-2.084571-3.949714-3.181715-8.301714Q329.142857 635.337143 329.142857 630.857143q0-1.792 0.182857-3.584t0.512-3.547429q0.365714-1.755429 0.877715-3.474285 0.530286-1.737143 1.206857-3.382858 0.694857-1.664 1.536-3.254857 0.841143-1.572571 1.846857-3.072 1.005714-1.499429 2.139428-2.889143 1.133714-1.389714 2.413715-2.651428 1.28-1.28 2.651428-2.413714 1.389714-1.133714 2.889143-2.139429 1.499429-1.005714 3.072-1.828571 1.590857-0.859429 3.254857-1.554286 1.645714-0.676571 3.364572-1.206857 1.737143-0.512 3.474285-0.877715 1.773714-0.347429 3.565715-0.512 1.792-0.182857 3.584-0.182857 5.485714 0 10.697143 1.590857 5.229714 1.609143 9.764571 4.662858l93.568 63.158857 149.668571-192.438857q2.56-3.291429 5.814858-5.924572 3.236571-2.633143 6.985142-4.48 3.748571-1.828571 7.826286-2.761143Q654.116571 457.142857 658.285714 457.142857q1.792 0 3.584 0.182857t3.547429 0.512q1.755429 0.365714 3.474286 0.877715 1.737143 0.530286 3.382857 1.206857 1.664 0.694857 3.254857 1.536 1.572571 0.841143 3.072 1.846857 1.499429 1.005714 2.889143 2.139428 1.389714 1.133714 2.651428 2.413715 1.28 1.28 2.413715 2.651428 1.133714 1.389714 2.139428 2.889143 1.005714 1.499429 1.828572 3.072 0.859429 1.590857 1.554285 3.254857 0.676571 1.645714 1.206857 3.364572 0.512 1.737143 0.877715 3.474285 0.347429 1.773714 0.512 3.565715 0.182857 1.792 0.182857 3.584z" p-id="1454"></path></svg>