<?xml version="1.0" standalone="no"?><!DOCTYPE svg PUBLIC "-//W3C//DTD SVG 1.1//EN" "http://www.w3.org/Graphics/SVG/1.1/DTD/svg11.dtd"><svg t="1702003663040" class="icon" viewBox="0 0 1024 1024" version="1.1" xmlns="http://www.w3.org/2000/svg" p-id="1743" xmlns:xlink="http://www.w3.org/1999/xlink" width="200" height="200"><path d="M324.955429 664.502857q25.856 25.874286 62.061714 20.699429l108.617143-15.506286q36.205714-5.174857 62.061714-31.030857L902.491429 293.851429q32.146286-32.128 32.146285-77.568 0-45.458286-32.146285-77.586286l-51.712-51.712q-32.128-32.146286-77.586286-32.146286-45.44 0-77.568 32.146286L350.811429 431.780571q-25.856 25.856-31.030858 62.061715l-15.506285 108.617143q-5.174857 36.205714 20.681143 62.061714zM475.428571 152.557714H256q-45.44 0-77.586286 32.146286Q146.285714 216.813714 146.285714 262.253714v512q0 45.458286 32.128 77.586286 32.146286 32.128 77.586286 32.128h438.857143q45.44 0 77.586286-32.128Q804.571429 819.712 804.571429 774.253714v-256q0-1.792 0.182857-3.584 0.182857-1.773714 0.512-3.547428 0.365714-1.755429 0.877714-3.474286 0.530286-1.718857 1.206857-3.382857 0.694857-1.645714 1.536-3.236572 0.859429-1.590857 1.846857-3.090285 1.005714-1.481143 2.139429-2.870857 1.133714-1.389714 2.413714-2.669715 1.28-1.28 2.651429-2.413714 1.389714-1.133714 2.889143-2.139429 1.499429-0.987429 3.072-1.828571 1.590857-0.859429 3.254857-1.536 1.645714-0.694857 3.364571-1.206857 1.737143-0.530286 3.474286-0.877714 1.773714-0.365714 3.565714-0.530286 1.792-0.182857 3.584-0.182857t3.584 0.182857q1.792 0.182857 3.547429 0.530286 1.755429 0.347429 3.474285 0.877714 1.737143 0.512 3.382858 1.206857 1.664 0.676571 3.254857 1.536 1.572571 0.841143 3.072 1.828571 1.499429 1.005714 2.889143 2.139429 1.389714 1.152 2.651428 2.413714 1.28 1.28 2.413714 2.669715 1.133714 1.389714 2.139429 2.870857 1.005714 1.499429 1.828571 3.090285 0.859429 1.572571 1.554286 3.236572 0.676571 1.645714 1.206857 3.382857 0.512 1.718857 0.877715 3.474286 0.347429 1.773714 0.512 3.547428 0.182857 1.792 0.182857 3.584v256q0 37.193143-14.390857 71.186286-13.878857 32.822857-39.168 58.112-25.289143 25.307429-58.112 39.186286-34.011429 14.372571-71.186286 14.372571H256q-37.174857 0-71.186286-14.372571-32.822857-13.897143-58.112-39.186286-25.289143-25.289143-39.168-58.112Q73.142857 811.428571 73.142857 774.253714v-512q0-37.174857 14.390857-71.186285 13.878857-32.822857 39.168-58.112t58.112-39.168q34.011429-14.390857 71.186286-14.390858h219.428571q1.792 0 3.584 0.182858t3.547429 0.530285q1.755429 0.347429 3.474286 0.877715 1.737143 0.512 3.382857 1.206857 1.664 0.676571 3.254857 1.536 1.572571 0.841143 3.072 1.828571 1.499429 1.005714 2.889143 2.139429 1.389714 1.152 2.651428 2.413714 1.28 1.28 2.413715 2.669714 1.133714 1.389714 2.139428 2.870857 1.005714 1.499429 1.828572 3.090286 0.859429 1.572571 1.554285 3.236572 0.676571 1.645714 1.206858 3.382857 0.512 1.718857 0.877714 3.474285 0.347429 1.773714 0.512 3.547429 0.182857 1.792 0.182857 3.584 0 1.810286-0.182857 3.584-0.182857 1.792-0.512 3.565714-0.365714 1.755429-0.877714 3.474286-0.530286 1.718857-1.206858 3.382857-0.694857 1.645714-1.536 3.236572-0.841143 1.590857-1.846857 3.090285-1.005714 1.481143-2.139428 2.870857-1.133714 1.389714-2.413715 2.669715-1.28 1.28-2.651428 2.395428-1.389714 1.152-2.889143 2.139429-1.499429 1.005714-3.072 1.846857-1.590857 0.859429-3.254857 1.536-1.645714 0.694857-3.364572 1.206857-1.737143 0.530286-3.474285 0.877714-1.773714 0.365714-3.565715 0.530286-1.792 0.182857-3.584 0.182857z m375.350858 89.6l-25.856 25.856-103.442286-103.442285 25.856-25.856q10.715429-10.715429 25.856-10.715429 15.158857 0 25.874286 10.715429l51.712 51.712q10.715429 10.715429 10.715428 25.874285 0 15.140571-10.715428 25.856zM485.284571 597.284571l-108.617142 15.506286 15.542857-108.617143q1.700571-12.068571 10.331428-20.662857l267.227429-267.245714 103.442286 103.442286L505.965714 586.934857q-8.630857 8.630857-20.699428 10.349714z" p-id="1744"></path></svg>