<?xml version="1.0" standalone="no"?><!DOCTYPE svg PUBLIC "-//W3C//DTD SVG 1.1//EN" "http://www.w3.org/Graphics/SVG/1.1/DTD/svg11.dtd"><svg t="1702018711499" class="icon" viewBox="0 0 1024 1024" version="1.1" xmlns="http://www.w3.org/2000/svg" p-id="3880" xmlns:xlink="http://www.w3.org/1999/xlink" width="200" height="200"><path d="M457.142857 163.090286q-29.531429 5.796571-57.563428 18.139428-50.468571 22.235429-89.782858 62.793143-38.582857 39.808-60.854857 91.556572-22.710857 52.790857-25.179428 110.518857-0.859429 20.224-2.176 38.345143-5.668571 78.738286-52.498286 140.946285-18.468571 24.502857-22.016 57.856-3.163429 29.915429 6.4 58.733715 10.24 30.829714 31.835429 50.432 26.24 23.808 60.653714 23.808h103.936q3.2 18.084571 10.532571 35.254857 12.525714 29.312 35.328 51.894857 22.765714 22.528 52.297143 34.889143 30.555429 12.8 63.945143 12.8 33.389714 0 63.945143-12.8 29.531429-12.361143 52.297143-34.889143 22.802286-22.582857 35.328-51.894857 7.332571-17.188571 10.532571-35.254857h101.412572q34.432 0 60.653714-23.808 21.613714-19.602286 31.853714-50.432 9.563429-28.818286 6.4-58.733715-3.547429-33.334857-22.016-57.856-46.848-62.208-52.516571-140.946285-1.298286-18.102857-2.157715-38.345143-2.468571-57.728-25.179428-110.518857-22.272-51.748571-60.873143-91.556572-39.296-40.557714-89.782857-62.793143-26.825143-11.812571-55.04-17.645714V128a54.857143 54.857143 0 1 0-109.714286 0v35.090286z m267.52 286.116571q0.914286 21.302857 2.285714 40.484572 7.204571 100.260571 67.035429 179.693714 6.290286 8.356571 7.68 21.577143 1.517714 14.171429-3.053714 27.977143-8.027429 24.137143-23.094857 24.137142h-529.554286q-15.067429 0-23.076572-24.137142-4.571429-13.805714-3.072-27.977143 1.408-13.220571 7.68-21.577143 59.830857-79.433143 67.053715-179.693714 1.389714-19.181714 2.285714-40.484572 1.901714-44.288 19.291429-84.699428 16.969143-39.405714 46.208-69.595429 29.348571-30.281143 66.742857-46.738286 38.820571-17.097143 81.664-17.097143 42.861714 0 81.682285 17.097143 37.394286 16.457143 66.742858 46.738286 29.238857 30.171429 46.189714 69.595429 17.408 40.411429 19.309714 84.699428zM447.195429 851.382857q-15.835429-15.670857-22.253715-35.163428h174.08q-6.418286 19.492571-22.253714 35.145142Q549.979429 877.897143 512 877.897143t-64.786286-26.514286z" p-id="3881" fill="#ffffff"></path></svg>