<?xml version="1.0" standalone="no"?><!DOCTYPE svg PUBLIC "-//W3C//DTD SVG 1.1//EN" "http://www.w3.org/Graphics/SVG/1.1/DTD/svg11.dtd"><svg t="1702003094856" class="icon" viewBox="0 0 1024 1024" version="1.1" xmlns="http://www.w3.org/2000/svg" p-id="1161" xmlns:xlink="http://www.w3.org/1999/xlink" width="200" height="200"><path d="M129.462857 708.754286l54.857143-438.857143q8.594286-68.644571 60.434286-114.413714Q296.594286 109.714286 365.769143 109.714286h290.285714q69.174857 0 121.014857 45.769143 51.858286 45.769143 60.434286 114.413714l54.857143 438.857143q5.010286 40.045714-7.149714 78.171428-11.666286 36.571429-37.211429 65.517715-25.545143 28.928-60.397714 45.056-36.315429 16.786286-76.690286 16.786285H310.912q-40.374857 0-76.690286-16.786285-34.852571-16.128-60.397714-45.056-25.545143-28.928-37.211429-65.517715-12.16-38.107429-7.149714-78.171428z m72.576 9.069714q-6.144 49.115429 26.624 86.217143Q261.412571 841.142857 310.912 841.142857h400q49.499429 0 82.249143-37.12 32.768-37.083429 26.624-86.198857l-54.857143-438.857143q-5.156571-41.179429-36.260571-68.644571Q697.563429 182.857143 656.073143 182.857143H365.750857q-41.508571 0-72.612571 27.465143t-36.260572 68.644571l-54.857143 438.857143zM382.902857 256q-1.792 0-3.584 0.182857-1.773714 0.182857-3.547428 0.512-1.755429 0.365714-3.474286 0.877714-1.718857 0.530286-3.382857 1.206858-1.645714 0.694857-3.236572 1.536-1.590857 0.841143-3.090285 1.846857-1.481143 1.005714-2.870858 2.139428-1.389714 1.133714-2.669714 2.413715-1.28 1.28-2.413714 2.651428-1.133714 1.389714-2.121143 2.889143-1.005714 1.499429-1.846857 3.072-0.859429 1.590857-1.536 3.254857-0.694857 1.645714-1.225143 3.364572-0.512 1.718857-0.859429 3.474285-0.365714 1.773714-0.530285 3.565715-0.182857 1.792-0.182857 3.584 0 33.261714 13.001142 63.689142 12.544 29.312 35.346286 51.876572 22.765714 22.546286 52.297143 34.907428 30.537143 12.8 63.926857 12.8t63.945143-12.8q29.531429-12.361143 52.297143-34.907428 22.802286-22.564571 35.328-51.876572 12.982857-30.409143 13.001143-63.634285V292.571429q0-1.792-0.182857-3.584-0.164571-1.792-0.512-3.547429-0.365714-1.773714-0.877715-3.474286-0.512-1.737143-1.206857-3.382857-0.676571-1.664-1.536-3.254857-0.841143-1.572571-1.828571-3.072-1.005714-1.499429-2.139429-2.889143-1.152-1.389714-2.413714-2.651428-1.28-1.28-2.669714-2.413715-1.389714-1.133714-2.870858-2.139428-1.499429-1.005714-3.090285-1.828572-1.572571-0.859429-3.236572-1.554285-1.664-0.676571-3.382857-1.206858-1.718857-0.512-3.474286-0.877714-1.773714-0.347429-3.565714-0.512-1.773714-0.182857-3.584-0.182857-1.792 0-3.584 0.182857-1.773714 0.182857-3.547428 0.512-1.755429 0.365714-3.474286 0.877714-1.718857 0.530286-3.382857 1.206858-1.645714 0.694857-3.236572 1.536-1.590857 0.841143-3.090285 1.846857-1.481143 1.005714-2.870858 2.139428-1.389714 1.133714-2.669714 2.413715-1.28 1.28-2.413714 2.651428-1.133714 1.389714-2.121143 2.889143-1.005714 1.499429-1.846857 3.072-0.859429 1.590857-1.536 3.254857-0.694857 1.645714-1.225143 3.364572-0.512 1.718857-0.859429 3.474285-0.365714 1.773714-0.530285 3.565715-0.182857 1.792-0.182857 3.584 0 37.211429-26.642286 63.579428-26.806857 26.532571-64.786286 26.532572t-64.768-26.514286Q419.474286 329.764571 419.474286 292.571429q0-1.792-0.182857-3.584-0.164571-1.792-0.512-3.547429-0.365714-1.773714-0.877715-3.474286-0.512-1.737143-1.206857-3.382857-0.676571-1.664-1.536-3.254857-0.841143-1.572571-1.828571-3.072-1.005714-1.499429-2.157715-2.889143-1.133714-1.389714-2.395428-2.651428-1.28-1.28-2.669714-2.413715-1.389714-1.133714-2.870858-2.139428-1.499429-1.005714-3.090285-1.828572-1.572571-0.859429-3.236572-1.554285-1.664-0.676571-3.382857-1.206858-1.718857-0.512-3.474286-0.877714-1.773714-0.347429-3.565714-0.512-1.773714-0.182857-3.584-0.182857z" p-id="1162"></path></svg>