<?xml version="1.0" standalone="no"?><!DOCTYPE svg PUBLIC "-//W3C//DTD SVG 1.1//EN" "http://www.w3.org/Graphics/SVG/1.1/DTD/svg11.dtd"><svg t="1702003367113" class="icon" viewBox="0 0 1024 1024" version="1.1" xmlns="http://www.w3.org/2000/svg" p-id="1307" xmlns:xlink="http://www.w3.org/1999/xlink" width="200" height="200"><path d="M972.123429 513.042286q0-43.209143-21.595429-80.621715L803.072 177.042286q-21.595429-37.430857-59.008-59.026286-37.430857-21.613714-80.64-21.613714H368.548571q-43.190857 0-80.621714 21.613714-37.412571 21.595429-59.008 59.026286L81.444571 432.420571q-21.595429 37.412571-21.595428 80.64 0 43.190857 21.595428 80.603429l147.456 255.396571q21.595429 37.412571 59.008 59.008 37.430857 21.613714 80.64 21.613715h294.893715q43.190857 0 80.621714-21.613715 37.412571-21.595429 59.008-59.008l147.456-255.396571q21.595429-37.412571 21.595429-80.621714zM739.730286 213.613714l147.456 255.378286q11.794286 20.443429 11.794285 44.068571 0 23.588571-11.794285 44.032l-147.456 255.396572q-11.794286 20.443429-32.237715 32.237714-20.461714 11.812571-44.068571 11.812572H368.548571q-23.588571 0-44.050285-11.812572-20.443429-11.794286-32.237715-32.237714L144.786286 557.092571q-11.794286-20.443429-11.794286-44.050285 0-23.606857 11.794286-44.050286l147.456-255.378286q11.794286-20.461714 32.237714-32.256 20.443429-11.812571 44.068571-11.812571h294.893715q23.588571 0 44.050285 11.812571 20.443429 11.794286 32.237715 32.256z m-83.785143 357.211429q10.258286-25.947429 10.258286-53.833143 0-27.904-10.258286-53.851429-11.154286-28.16-32.585143-49.590857-21.412571-21.430857-49.590857-32.585143-25.947429-10.258286-53.851429-10.258285-27.904 0-53.833143 10.258285-28.16 11.154286-49.609142 32.585143-21.412571 21.412571-32.566858 49.590857-10.276571 25.947429-10.276571 53.851429 0 27.885714 10.276571 53.833143 11.154286 28.16 32.566858 49.590857 21.430857 21.430857 49.609142 32.585143 25.929143 10.276571 53.833143 10.276571t53.851429-10.276571q28.16-11.154286 49.590857-32.585143 21.430857-21.412571 32.585143-49.590857z m-84.297143-105.563429q21.412571 21.430857 21.412571 51.730286 0 30.281143-21.412571 51.712-21.430857 21.430857-51.730286 21.430857-30.299429 0-51.712-21.430857-21.430857-21.430857-21.430857-51.712 0-30.299429 21.430857-51.730286 21.412571-21.412571 51.712-21.412571 30.299429 0 51.730286 21.412571z" p-id="1308"></path></svg>