<?xml version="1.0" standalone="no"?><!DOCTYPE svg PUBLIC "-//W3C//DTD SVG 1.1//EN"
        "http://www.w3.org/Graphics/SVG/1.1/DTD/svg11.dtd">
<svg t="1701962124562" class="icon" viewBox="0 0 1024 1024" version="1.1" xmlns="http://www.w3.org/2000/svg" p-id="980"
     xmlns:xlink="http://www.w3.org/1999/xlink" width="200" height="200">
    <path d="M716.013714 409.910857Q731.428571 371.017143 731.428571 329.142857q0-41.856-15.414857-80.768-16.713143-42.24-48.859428-74.386286-32.128-32.146286-74.386286-48.859428Q553.874286 109.714286 512 109.714286q-41.856 0-80.768 15.414857-42.24 16.713143-74.386286 48.859428-32.146286 32.128-48.859428 74.386286Q292.571429 287.268571 292.571429 329.142857q0 41.856 15.414857 80.768 16.713143 42.24 48.859428 74.386286 32.128 32.146286 74.386286 48.859428Q470.125714 548.571429 512 548.571429q41.856 0 80.768-15.414858 42.24-16.713143 74.386286-48.859428 32.146286-32.128 48.859428-74.386286z m-68.004571-134.619428Q658.285714 301.257143 658.285714 329.142857q0 27.904-10.276571 53.851429-11.154286 28.16-32.566857 49.590857-21.430857 21.412571-49.590857 32.566857Q539.885714 475.428571 512 475.428571q-27.904 0-53.851429-10.276571-28.16-11.154286-49.590857-32.566857-21.412571-21.430857-32.566857-49.590857Q365.714286 357.028571 365.714286 329.142857q0-27.904 10.276571-53.851428 11.154286-28.16 32.566857-49.590858 21.430857-21.412571 49.590857-32.566857Q484.114286 182.857143 512 182.857143q27.904 0 53.851429 10.276571 28.16 11.154286 49.590857 32.566857 21.412571 21.430857 32.566857 49.590858zM146.285714 896q0-67.785143 29.421715-129.590857 28.16-59.209143 79.250285-104.612572 50.651429-45.019429 116.059429-69.613714Q438.381714 566.857143 512 566.857143t140.982857 25.325714q65.426286 24.594286 116.059429 69.613714 51.090286 45.403429 79.250285 104.594286Q877.714286 828.233143 877.714286 896q0 1.792-0.182857 3.584t-0.512 3.547429q-0.365714 1.755429-0.877715 3.474285-0.530286 1.737143-1.206857 3.382857-0.694857 1.664-1.536 3.254858-0.859429 1.572571-1.846857 3.072-1.005714 1.499429-2.139429 2.889142-1.133714 1.389714-2.413714 2.651429-1.28 1.28-2.651428 2.413714-1.389714 1.133714-2.889143 2.139429-1.499429 1.005714-3.072 1.828571-1.590857 0.859429-3.254857 1.554286-1.645714 0.676571-3.364572 1.206857-1.737143 0.512-3.474286 0.877714-1.773714 0.347429-3.565714 0.512-1.792 0.182857-3.584 0.182858t-3.584-0.182858q-1.792-0.182857-3.547428-0.512-1.755429-0.365714-3.474286-0.877714-1.737143-0.530286-3.382857-1.206857-1.664-0.694857-3.254857-1.536-1.572571-0.859429-3.072-1.846857-1.499429-1.005714-2.889143-2.139429-1.389714-1.133714-2.651429-2.413714-1.28-1.28-2.413714-2.651429-1.133714-1.389714-2.139429-2.889142-1.005714-1.499429-1.828571-3.072-0.859429-1.590857-1.554286-3.254858-0.676571-1.645714-1.206857-3.364571-0.512-1.737143-0.877714-3.474286-0.347429-1.773714-0.512-3.565714Q804.571429 897.792 804.571429 896q0-51.273143-22.308572-98.176-21.814857-45.805714-61.805714-81.371429-40.502857-35.986286-93.202286-55.808Q572.324571 640 512 640t-115.254857 20.662857q-52.699429 19.803429-93.184 55.789714-40.009143 35.565714-61.805714 81.371429Q219.428571 844.726857 219.428571 896q0 1.792-0.182857 3.584t-0.512 3.547429q-0.365714 1.755429-0.877714 3.474285-0.530286 1.737143-1.206857 3.382857-0.694857 1.664-1.536 3.254858-0.841143 1.572571-1.846857 3.072-1.005714 1.499429-2.139429 2.889142-1.133714 1.389714-2.413714 2.651429-1.28 1.28-2.651429 2.413714-1.389714 1.133714-2.889143 2.139429-1.499429 1.005714-3.072 1.828571-1.590857 0.859429-3.254857 1.554286-1.645714 0.676571-3.364571 1.206857-1.718857 0.512-3.474286 0.877714-1.773714 0.347429-3.565714 0.512-1.792 0.182857-3.584 0.182858t-3.584-0.182858q-1.792-0.182857-3.547429-0.512-1.773714-0.365714-3.474285-0.877714-1.737143-0.530286-3.382858-1.206857-1.664-0.694857-3.254857-1.536-1.572571-0.859429-3.072-1.846857-1.499429-1.005714-2.889143-2.139429-1.389714-1.133714-2.651428-2.413714-1.28-1.28-2.413714-2.651429-1.133714-1.389714-2.139429-2.889142-1.005714-1.499429-1.828571-3.072-0.859429-1.590857-1.554286-3.254858-0.676571-1.645714-1.206857-3.364571-0.512-1.737143-0.877715-3.474286-0.347429-1.773714-0.512-3.565714Q146.285714 897.792 146.285714 896z"
          p-id="981"></path>
</svg>